<?xml version="1.0" encoding="UTF-8" standalone="no"?>
<svg
   xmlns:dc="http://purl.org/dc/elements/1.1/"
   xmlns:cc="http://creativecommons.org/ns#"
   xmlns:rdf="http://www.w3.org/1999/02/22-rdf-syntax-ns#"
   xmlns:svg="http://www.w3.org/2000/svg"
   xmlns="http://www.w3.org/2000/svg"
   xmlns:xlink="http://www.w3.org/1999/xlink"
   xmlns:sodipodi="http://sodipodi.sourceforge.net/DTD/sodipodi-0.dtd"
   xmlns:inkscape="http://www.inkscape.org/namespaces/inkscape"
   version="1.0"
   width="143.73228pt"
   height="133.17206pt"
   viewBox="0 0 143.73229 133.17206"
   preserveAspectRatio="xMidYMid meet"
   id="svg18"
   sodipodi:docname="logo.svg"
   inkscape:version="0.92.2 5c3e80d, 2017-08-06"
   inkscape:export-xdpi="72"
   inkscape:export-ydpi="72">
  <defs
     id="defs22">
    <linearGradient
       inkscape:collect="always"
       id="linearGradient880">
      <stop
         style="stop-color:#ffe082;stop-opacity:1;"
         offset="0"
         id="stop876" />
      <stop
         style="stop-color:#ffd54f;stop-opacity:1"
         offset="1"
         id="stop878" />
    </linearGradient>
    <linearGradient
       id="linearGradient8385">
      <stop
         offset="0"
         style="stop-color:#000000;stop-opacity:1"
         id="stop8387" />
      <stop
         offset="1"
         style="stop-color:#ffffff;stop-opacity:1"
         id="stop8389" />
    </linearGradient>
    <linearGradient
       inkscape:collect="always"
       xlink:href="#linearGradient8385"
       id="linearGradient2088"
       gradientUnits="userSpaceOnUse"
       gradientTransform="matrix(0.99884,0,0,0.998699,689.00774,-388.84375)"
       x1="-666.11664"
       y1="413.04492"
       x2="-553.2699"
       y2="525.90759" />
    <linearGradient
       inkscape:collect="always"
       xlink:href="#linearGradient8385"
       id="linearGradient2090"
       gradientUnits="userSpaceOnUse"
       gradientTransform="matrix(0.99884,0,0,0.998699,689.00774,-388.84375)"
       x1="-553.26971"
       y1="525.90778"
       x2="-666.11639"
       y2="413.0452" />
    <radialGradient
       inkscape:collect="always"
       xlink:href="#linearGradient880"
       id="radialGradient882"
       cx="43.122578"
       cy="91.022758"
       fx="43.122578"
       fy="91.022758"
       r="70.866142"
       gradientTransform="matrix(1.3984537,0.58637909,-0.62153233,1.4822906,34.873071,-74.349165)"
       gradientUnits="userSpaceOnUse" />
  </defs>
  <sodipodi:namedview
     pagecolor="#ffffff"
     bordercolor="#666666"
     borderopacity="1"
     objecttolerance="10"
     gridtolerance="10"
     guidetolerance="10"
     inkscape:pageopacity="0"
     inkscape:pageshadow="2"
     inkscape:window-width="1680"
     inkscape:window-height="925"
     id="namedview20"
     showgrid="false"
     fit-margin-top="1"
     fit-margin-left="1"
     fit-margin-right="1"
     fit-margin-bottom="1"
     inkscape:zoom="2.4126824"
     inkscape:cx="110.51862"
     inkscape:cy="77.398504"
     inkscape:window-x="0"
     inkscape:window-y="1"
     inkscape:window-maximized="1"
     inkscape:current-layer="svg18"
     scale-x="0.75" />
  <metadata
     id="metadata2">
Created by potrace 1.15, written by Peter Selinger 2001-2017
<rdf:RDF>
  <cc:Work
     rdf:about="">
    <dc:format>image/svg+xml</dc:format>
    <dc:type
       rdf:resource="http://purl.org/dc/dcmitype/StillImage" />
    <dc:title />
  </cc:Work>
</rdf:RDF>
</metadata>
  <path
     style="fill:url(#radialGradient882);fill-opacity:1;stroke-width:0.63806492"
     d="M 72.106261,1.0001047 C 60.039308,0.983255 38.001125,3.0019394 33.541871,5.7507285 29.082616,8.4995171 30.045475,6.1616066 30.045475,6.1616066 21.914644,7.117229 14.917791,11.613395 12.080643,17.706126 c -1.926781,4.13772 -2.001757,11.015496 -0.211981,19.485344 0.704482,3.333885 1.457486,8.373458 1.672958,11.199066 0.331567,4.348482 0.190824,5.590889 -0.914665,8.09 -1.504617,3.401428 -3.3892612,4.599568 -8.2771142,5.261603 L 1,62.196199 v 4.327315 4.327316 l 3.5363063,0.293111 c 6.1297167,0.508318 9.2227047,4.157527 9.2244937,10.8824 6.7e-4,2.023643 -0.717104,7.28702 -1.594448,11.696308 -1.827595,9.184911 -2.030666,15.978501 -0.603232,20.167741 2.04757,6.00931 7.928236,10.59996 15.757993,12.30086 3.377195,0.73364 1.287623,-0.68549 5.629956,0.64772 4.342334,1.3332 21.440448,5.51388 38.405399,5.32703 16.964951,-0.18686 35.488082,-3.67522 38.834602,-5.06664 3.34652,-1.39142 2.71193,-0.41153 2.71193,-0.41153 1.49147,-0.22657 4.57759,-1.03739 6.85867,-1.80185 5.29494,-1.77448 10.93687,-7.02336 12.20402,-11.35347 1.20157,-4.10626 0.93751,-11.40768 -0.70203,-19.405522 -1.92811,-9.40554 -2.03581,-15.859888 -0.31405,-18.822572 1.63938,-2.820919 4.86037,-4.464024 8.75211,-4.465364 l 3.03056,-0.0013 v -4.384205 -4.384231 l -3.87848,-0.43836 c -3.1294,-0.354047 -4.30673,-0.832043 -6.0958,-2.47509 -3.8534,-3.538893 -4.09505,-7.179116 -1.38442,-20.859301 0.73011,-3.684825 1.34946,-9.154207 1.37657,-12.153641 0.0428,-4.722039 -0.187,-5.937425 -1.71614,-9.062891 -2.6649,-5.446867 -7.80167,-9.0861777 -14.97222,-10.6076083 -2.92448,-0.620508 -3.46021,2.0818889 -5.12748,-0.5338811 -1.66727,-2.61577 -26.761101,-4.9215559 -38.828049,-4.9383989 z"
     id="path4544"
     inkscape:connector-curvature="0"
     sodipodi:nodetypes="zzcccccccccccccczzzcscsscccccsccsszz" />
  <path
     style="fill:#caae5f;fill-opacity:0.94117647;stroke-width:0.63806492"
     d="m 27.321235,126.19111 c -7.829757,-1.70089 -13.710648,-6.29148 -15.758218,-12.30079 -1.427435,-4.18925 -1.224157,-10.98305 0.60344,-20.167957 0.877341,-4.409288 1.594703,-9.67258 1.594158,-11.696223 -0.0018,-6.724877 -3.09478,-10.373582 -9.224495,-10.881904 L 1.0003157,70.851022 v -4.32757 -4.32757 l 3.349835,-0.453716 C 9.2380038,61.08013 11.12262,59.882147 12.627239,56.480719 13.732726,53.981608 13.873134,52.739179 13.541567,48.390697 13.326096,45.565084 12.573427,40.525488 11.868946,37.191602 10.079171,28.721753 10.153904,21.84403 12.080688,17.706311 14.917833,11.61358 21.914614,7.11725 30.045446,6.1616298 l 3.496175,-0.4109093 v 4.5543045 4.554305 h -2.350807 c -3.204739,0 -7.686379,2.28331 -8.832726,4.500114 -1.099627,2.126425 -1.182971,5.180345 -0.286389,10.494412 1.416983,8.398658 1.893826,16.456067 1.222531,20.658179 -0.768042,4.807749 -3.571743,10.483746 -6.654347,13.471532 l -2.134469,2.068803 2.920976,3.586179 c 3.600212,4.420075 5.000263,7.503786 5.86529,12.918665 0.684314,4.283589 0.15265,13.172083 -1.213125,20.282596 -1.905617,9.92091 0.293549,13.83902 8.432268,15.0232 l 3.030798,0.44099 v 4.42734 c 0,5.05006 0.309034,4.87818 -6.220386,3.45977 z"
     id="path6700"
     inkscape:connector-curvature="0" />
  <path
     style="fill:#caae5f;fill-opacity:0.94117647;stroke-width:0.63806498"
     d="m 110.19084,122.7046 v -4.39488 l 3.70725,-0.76572 c 4.09263,-0.84531 7.33242,-3.37031 8.06389,-6.28474 0.23042,-0.91806 -0.20379,-5.72266 -0.96488,-10.67689 -2.48121,-16.150772 -1.10583,-24.484283 5.16348,-31.285692 l 2.68114,-2.908694 -2.00909,-2.288209 c -7.19595,-8.195743 -8.44449,-15.468278 -5.70395,-33.22478 1.38079,-8.946321 1.382,-9.033172 0.15736,-11.166136 -1.44176,-2.510965 -5.93946,-5.020978 -8.9971,-5.020978 h -2.09803 v -4.466459 c 0,-5.0843209 -0.10545,-5.0170204 5.8707,-3.7490253 7.17054,1.5214307 12.30718,5.1606793 14.97208,10.6075473 1.52914,3.125464 1.7594,4.341099 1.71664,9.063137 -0.0271,2.999434 -0.64675,8.468375 -1.37686,12.1532 -2.71062,13.680184 -2.46904,17.320366 1.38437,20.859263 1.78906,1.643048 2.96647,2.121124 6.09586,2.475171 l 3.87853,0.438806 v 4.384026 4.384044 l -3.03082,0.0013 c -3.89175,0.0013 -7.1123,1.644535 -8.75168,4.465454 -1.72176,2.962684 -1.61405,9.417385 0.31406,18.822925 1.63954,7.99784 1.9037,15.2987 0.70213,19.40497 -1.26714,4.3301 -6.90909,9.57897 -12.20403,11.35346 -2.28108,0.76446 -5.36773,1.57529 -6.8592,1.80187 l -2.71178,0.41193 z"
     id="path6702"
     inkscape:connector-curvature="0" />
  <g
     aria-label="INSPECTOR"
     transform="matrix(0.44657909,-0.00769782,0.00769782,0.44657909,-2.0991497,16.288017)"
     style="font-style:normal;font-weight:normal;font-size:30px;line-height:1.25;font-family:sans-serif;letter-spacing:0px;word-spacing:0px;fill:#000000;fill-opacity:1;stroke:none;stroke-width:0.75"
     id="text3854">
    <path
       inkscape:connector-curvature="0"
       d="m 83.359366,229.50966 2.879915,0.67947 -5.022021,21.28571 -2.879915,-0.67947 z"
       style="stroke-width:0.75"
       id="path312" />
    <path
       inkscape:connector-curvature="0"
       d="m 91.122023,231.3575 3.911364,0.75926 6.033113,19.80854 3.48646,-17.96064 2.81848,0.54712 -4.16755,21.46936 -3.911367,-0.75926 -6.033118,-19.80854 -3.486452,17.96064 -2.818483,-0.54712 z"
       style="stroke-width:0.75"
       id="path314" />
    <path
       inkscape:connector-curvature="0"
       d="m 125.04095,237.87896 -0.41484,2.85577 q -1.55126,-1.03946 -2.97302,-1.64566 -1.42176,-0.60619 -2.79891,-0.80624 -2.39189,-0.34746 -3.83133,0.39078 -1.42494,0.74035 -1.67342,2.45091 -0.20848,1.43513 0.53941,2.29868 0.76448,0.85117 3.10559,1.65011 l 1.7159,0.61932 q 3.18561,1.09925 4.50718,2.90467 1.33817,1.79303 0.95491,4.43135 -0.45696,3.14569 -2.80926,4.46183 -2.33782,1.31824 -6.41127,0.72651 -1.53661,-0.22322 -3.22562,-0.82382 -1.67452,-0.59851 -3.43107,-1.54937 l 0.438,-3.01523 q 1.63775,1.25926 3.2746,2.01511 1.63686,0.75586 3.28944,0.99592 2.50786,0.3643 4.0137,-0.4235 1.50585,-0.7878 1.77118,-2.61433 0.23164,-1.59459 -0.62355,-2.63656 -0.84069,-1.03986 -3.00784,-1.81354 l -1.7325,-0.60692 q -3.1814,-1.12825 -4.44337,-2.73258 -1.26196,-1.60433 -0.90187,-4.08319 0.41695,-2.87027 2.67199,-4.23013 2.26955,-1.35777 5.82114,-0.84184 1.52211,0.2211 3.06219,0.72607 1.54009,0.50496 3.11264,1.29588 z"
       style="stroke-width:0.75"
       id="path316" />
    <path
       inkscape:connector-curvature="0"
       d="m 132.74795,240.48114 -0.80847,8.17791 3.70265,0.36605 q 2.05541,0.2032 3.28307,-0.74998 1.22766,-0.95319 1.42222,-2.92113 0.19311,-1.95337 -0.82415,-3.12849 -1.01725,-1.17511 -3.07266,-1.37831 z m -2.7054,-2.71095 6.64729,0.65715 q 3.65892,0.36173 5.36053,2.20802 1.71763,1.83315 1.40203,5.02559 -0.3185,3.2216 -2.36183,4.68294 -2.02875,1.46278 -5.68767,1.10105 l -3.70265,-0.36605 -0.86468,8.74643 -2.94463,-0.29111 z"
       style="stroke-width:0.75"
       id="path318" />
    <path
       inkscape:connector-curvature="0"
       d="m 146.8974,239.3457 13.81438,0.61641 -0.111,2.48775 -10.85834,-0.4845 -0.28861,6.46818 10.40468,0.46426 -0.111,2.48776 -10.40469,-0.46426 -0.35325,7.91692 11.12174,0.49626 -0.111,2.48776 -14.07779,-0.62816 z"
       style="stroke-width:0.75"
       id="path320" />
    <path
       inkscape:connector-curvature="0"
       d="m 180.82015,241.32821 0.0695,3.11934 q -1.52479,-1.35795 -3.23893,-2.00838 -1.6995,-0.65076 -3.60332,-0.60831 -3.74907,0.0836 -5.6895,2.42723 -1.94075,2.329 -1.8441,6.66386 0.0963,4.32021 2.13928,6.57504 2.04263,2.24018 5.7917,2.15659 1.90382,-0.0424 3.57263,-0.7683 1.68345,-0.72619 3.14619,-2.15075 l 0.0689,3.09006 q -1.52884,1.08903 -3.25981,1.6551 -1.71633,0.56574 -3.64945,0.60885 -4.96458,0.11069 -7.88791,-2.85711 -2.92365,-2.98245 -3.04088,-8.23993 -0.11754,-5.27213 2.6706,-8.36727 2.78782,-3.10979 7.75241,-3.22049 1.9624,-0.0437 3.70224,0.44493 1.75416,0.47371 3.3004,1.47954 z"
       style="stroke-width:0.75"
       id="path322" />
    <path
       inkscape:connector-curvature="0"
       d="m 181.1222,239.61006 18.44382,-1.45326 0.19561,2.48254 -7.73969,0.60984 1.5223,19.32 -2.96444,0.23358 -1.5223,-19.32 -7.73969,0.60984 z"
       style="stroke-width:0.75"
       id="path324" />
    <path
       inkscape:connector-curvature="0"
       d="m 210.34143,238.78958 q -3.1949,0.4221 -4.76813,3.05317 -1.55871,2.62916 -1.01573,6.73895 0.54107,4.09527 2.72909,6.22941 2.20256,2.13223 5.39745,1.71012 3.19489,-0.4221 4.73908,-3.04934 1.55871,-2.62915 1.01765,-6.72443 -0.54298,-4.10979 -2.73101,-6.24393 -2.17351,-2.13606 -5.3684,-1.71395 z m -0.31466,-2.38165 q 4.55998,-0.60246 7.695,2.10102 3.1331,2.68897 3.8123,7.82984 0.67729,5.12635 -1.64806,8.55125 -2.32726,3.41038 -6.88724,4.01284 -4.57451,0.60438 -7.72213,-2.08267 -3.1331,-2.68896 -3.8123,-7.82983 -0.67921,-5.14088 1.64805,-8.55126 2.33987,-3.42682 6.91438,-4.03119 z"
       style="stroke-width:0.75"
       id="path326" />
    <path
       inkscape:connector-curvature="0"
       d="m 235.66296,244.29427 q 0.99722,0.12646 2.08268,0.98237 1.09981,0.853 2.35694,2.48122 l 4.13155,5.25996 -3.11521,0.63217 -3.85774,-4.94185 q -1.49932,-1.93779 -2.64697,-2.4373 -1.1333,-0.50242 -2.856,-0.15283 l -3.15829,0.64091 1.83826,9.05853 -2.89987,0.58847 -4.34948,-21.43324 6.54626,-1.32844 q 3.67509,-0.7458 5.79564,0.42321 2.12055,1.169 2.74981,4.26986 0.41077,2.02417 -0.26578,3.55154 -0.6622,1.52445 -2.3518,2.40542 z m -9.09066,-7.527 1.54403,7.60858 3.64638,-0.73996 q 2.09595,-0.42533 2.96309,-1.60275 0.87859,-1.19469 0.49695,-3.07531 -0.38164,-1.88061 -1.6506,-2.6096 -1.25752,-0.74626 -3.35347,-0.32093 z"
       style="stroke-width:0.75"
       id="path328" />
  </g>
  <g
     aria-label="JSON-SCHEMA"
     transform="matrix(0.44664543,0,0,0.44664543,3.3009397,1)"
     style="font-style:normal;font-weight:normal;font-size:30px;line-height:1.25;font-family:sans-serif;letter-spacing:0px;word-spacing:0px;fill:#000000;fill-opacity:1;stroke:none;stroke-width:0.18520832"
     id="text3858">
    <path
       inkscape:connector-curvature="0"
       d="m 46.87195,136.65917 2.877098,-0.6913 4.753548,19.78361 q 0.924016,3.84563 -0.125501,5.93578 -1.035274,2.08672 -4.268448,2.86358 l -1.096715,0.26351 -0.581788,-2.42132 0.897313,-0.2156 q 1.90857,-0.45859 2.435267,-1.71504 0.526697,-1.25645 -0.137226,-4.01961 z"
       style="fill:#000000;stroke-width:0.18520832"
       id="path289" />
    <path
       inkscape:connector-curvature="0"
       d="m 69.270532,132.5527 0.569212,2.82905 q -1.810391,-0.45756 -3.35319,-0.55058 -1.5428,-0.093 -2.907061,0.18148 -2.369506,0.47675 -3.477042,1.65588 -1.093176,1.17624 -0.752226,2.87079 0.286051,1.4217 1.280688,1.98362 1.006109,0.54467 3.479547,0.51021 l 1.824234,0.007 q 3.369749,-0.0355 5.221283,1.22065 1.863005,1.23889 2.388876,3.85253 0.627,3.11626 -1.146041,5.1465 -1.75868,2.02736 -5.794021,2.83928 -1.522228,0.30628 -3.314851,0.30835 -1.778262,-8.2e-4 -3.752226,-0.30593 l -0.600996,-2.98701 q 1.965728,0.63549 3.761413,0.79716 1.795685,0.16168 3.432798,-0.16772 2.484392,-0.49986 3.637813,-1.74799 1.153421,-1.24813 0.789356,-3.05757 -0.317834,-1.57967 -1.473501,-2.27355 -1.141306,-0.69677 -3.442416,-0.69698 l -1.835705,0.0107 q -3.375528,0.007 -5.103336,-1.08002 -1.727808,-1.08679 -2.221895,-3.54246 -0.572102,-2.84341 1.094636,-4.88215 1.681098,-2.04163 5.199455,-2.74953 1.507868,-0.30339 3.128077,-0.34548 1.620208,-0.0421 3.367119,0.17422 z"
       style="fill:#000000;stroke-width:0.18520832"
       id="path291" />
    <path
       inkscape:connector-curvature="0"
       d="m 85.182062,131.28251 q -3.188527,0.46777 -4.723951,3.12108 -1.52093,2.65119 -0.919201,6.7528 0.599602,4.08711 2.817943,6.18972 2.232834,2.10049 5.421361,1.63272 3.188526,-0.46778 4.694963,-3.11684 1.520931,-2.65119 0.921328,-6.7383 -0.601728,-4.1016 -2.820069,-6.20422 -2.203848,-2.10474 -5.392374,-1.63696 z m -0.348705,-2.37691 q 4.550896,-0.66764 7.724276,1.99071 3.171253,2.64386 3.923946,7.77449 0.750566,5.11613 -1.525536,8.57396 -2.278228,3.44332 -6.829124,4.11097 -4.56539,0.66977 -7.751137,-1.97197 -3.171253,-2.64385 -3.923946,-7.77448 -0.752692,-5.13063 1.525536,-8.57396 2.290595,-3.45995 6.855985,-4.12972 z"
       style="fill:#000000;stroke-width:0.18520832"
       id="path293" />
    <path
       inkscape:connector-curvature="0"
       d="m 100.65051,127.19972 3.96731,-0.36838 11.34729,17.32097 -1.69156,-18.21753 2.8588,-0.26545 2.02201,21.77644 -3.96731,0.36838 -11.34729,-17.32097 1.69156,18.21753 -2.8588,0.26545 z"
       style="fill:#000000;stroke-width:0.18520832"
       id="path295" />
    <path
       inkscape:connector-curvature="0"
       d="m 123.03236,137.79583 7.88317,-0.44122 0.13425,2.39858 -7.88317,0.44123 z"
       style="fill:#000000;stroke-width:0.18520832"
       id="path297" />
    <path
       inkscape:connector-curvature="0"
       d="m 148.46534,125.0832 0.0686,2.88493 q -1.70324,-0.76542 -3.20636,-1.12531 -1.50311,-0.3599 -2.89432,-0.32683 -2.41631,0.0574 -3.71202,1.02598 -1.28107,0.96821 -1.24,2.69624 0.0344,1.44979 0.91622,2.17611 0.89606,0.71133 3.3378,1.10753 l 1.7953,0.32365 q 3.32458,0.55105 4.92946,2.11004 1.61917,1.54399 1.68252,4.20926 0.0755,3.17781 -2.02357,4.86879 -2.08444,1.69062 -6.19949,1.78842 -1.5523,0.0369 -3.31797,-0.2728 -1.75102,-0.31005 -3.64185,-0.95378 l -0.0724,-3.04602 q 1.82526,0.96765 3.56547,1.43913 1.74021,0.47148 3.40966,0.43181 2.53347,-0.0602 3.88636,-1.08874 1.3529,-1.02853 1.30905,-2.87371 -0.0383,-1.61088 -1.05568,-2.49516 -1.00274,-0.88462 -3.26876,-1.285 l -1.8096,-0.30865 q -3.32527,-0.58034 -4.83776,-1.95104 -1.51248,-1.3707 -1.572,-3.87488 -0.0689,-2.89957 1.92697,-4.6174 2.01053,-1.71817 5.59838,-1.80344 1.53765,-0.0366 3.14049,0.20376 1.60285,0.2403 3.28552,0.75711 z"
       style="fill:#000000;stroke-width:0.18520832"
       id="path299" />
    <path
       inkscape:connector-curvature="0"
       d="m 171.65941,126.32281 -0.0592,3.11955 q -1.46746,-1.41971 -3.1533,-2.14032 -1.6712,-0.72033 -3.57516,-0.75647 -3.74932,-0.0712 -5.7848,2.19039 -2.03521,2.24692 -2.11752,6.58208 -0.082,4.32051 1.86615,6.65772 1.94845,2.32256 5.69777,2.39374 1.90396,0.0362 3.60129,-0.62023 1.71198,-0.65609 3.23227,-2.01908 l -0.0587,3.09026 q -1.57248,1.02503 -3.32534,1.51918 -1.73821,0.49444 -3.67146,0.45774 -4.96492,-0.0943 -7.76329,-3.18017 -2.7981,-3.10055 -2.69827,-8.35839 0.1001,-5.27249 3.01359,-8.24994 2.91377,-2.99211 7.87869,-2.89784 1.96254,0.0373 3.68073,0.59732 1.73312,0.54569 3.23654,1.61446 z"
       style="fill:#000000;stroke-width:0.18520832"
       id="path301" />
    <path
       inkscape:connector-curvature="0"
       d="m 177.31637,124.88646 2.95254,0.19512 -0.59116,8.94533 10.72855,0.70902 0.59116,-8.94533 2.95255,0.19512 -1.44218,21.82252 -2.95254,-0.19513 0.68679,-10.39237 -10.72855,-0.70901 -0.68679,10.39237 -2.95255,-0.19513 z"
       style="fill:#000000;stroke-width:0.18520832"
       id="path303" />
    <path
       inkscape:connector-curvature="0"
       d="m 200.82402,126.63656 13.74094,1.55044 -0.27921,2.47453 -10.80061,-1.21867 -0.72594,6.43378 10.34936,1.16776 -0.27921,2.47453 -10.34936,-1.16776 -0.88855,7.87484 11.06262,1.24823 -0.27921,2.47453 -14.00294,-1.58 z"
       style="fill:#000000;stroke-width:0.18520832"
       id="path305" />
    <path
       inkscape:connector-curvature="0"
       d="m 220.84207,128.98026 4.34879,0.72726 3.04981,15.59951 7.98831,-13.75358 4.34879,0.72726 -3.6073,21.57056 -2.84622,-0.47597 3.16756,-18.94107 -8.03653,13.86433 -2.9329,-0.49047 -3.08828,-15.72477 -3.16756,18.94107 -2.83177,-0.47356 z"
       style="fill:#000000;stroke-width:0.18520832"
       id="path307" />
    <path
       inkscape:connector-curvature="0"
       d="m 254.10877,138.22307 -6.3498,9.70806 7.83761,1.80153 z m -0.97447,-3.21505 3.26924,0.75146 3.22389,23.18146 -2.99799,-0.68911 -0.68475,-5.91405 -9.60786,-2.20843 -3.19836,5.02149 -3.04082,-0.69895 z"
       style="fill:#000000;stroke-width:0.18520832"
       id="path309" />
  </g>
  <g
     transform="matrix(0.67049738,0,0,0.67049738,-21.554796,38.016288)"
     id="g3842"
     style="fill:#0d47a1;fill-opacity:1">
    <path
       inkscape:connector-curvature="0"
       id="path3834"
       d="m 122.99401,114.18985 c -4.32897,-0.9404 -7.58044,-3.47848 -8.71251,-6.80095 -0.78921,-2.31618 -0.67682,-6.07238 0.33363,-11.150598 0.48507,-2.437836 0.88169,-5.347843 0.88139,-6.466688 -9.8e-4,-3.718098 -1.71106,-5.735418 -5.1001,-6.016462 l -1.9549,-0.162116 v -2.392655 -2.392657 l 1.85208,-0.250855 c 2.70243,-0.366031 3.74441,-1.02838 4.57629,-2.908984 0.61121,-1.381726 0.68884,-2.068648 0.50552,-4.472869 -0.11913,-1.562244 -0.53527,-4.348568 -0.92477,-6.191832 -0.98954,-4.682868 -0.94822,-8.485471 0.11707,-10.773163 1.56862,-3.368589 5.43705,-5.854553 9.93248,-6.382903 l 1.93299,-0.227185 v 2.518015 2.518015 h -1.29973 c -1.77186,0 -4.2497,1.262413 -4.8835,2.488054 -0.60797,1.175674 -0.65405,2.864146 -0.15834,5.802223 0.78343,4.643508 1.04707,9.098344 0.67592,11.421636 -0.42464,2.658142 -1.97477,5.796328 -3.6791,7.448236 l -1.18012,1.143813 1.61497,1.982752 c 1.99051,2.443801 2.76458,4.148744 3.24284,7.142561 0.37835,2.368341 0.0844,7.282673 -0.67072,11.213982 -1.05359,5.48514 0.1623,7.65141 4.66209,8.30613 l 1.67569,0.24382 v 2.44782 c 0,2.79211 0.17086,2.69708 -3.43917,1.91286 z"
       style="fill:#0d47a1;fill-opacity:1;stroke-width:0.35277775" />
    <path
       inkscape:connector-curvature="0"
       id="path3836"
       d="m 152.2304,112.24932 v -2.42987 l 2.04969,-0.42336 c 2.26276,-0.46736 4.054,-1.8634 4.45842,-3.47475 0.1274,-0.50758 -0.11267,-3.16398 -0.53347,-5.90311 -1.37183,-8.929552 -0.6114,-13.537042 2.85482,-17.297452 l 1.48237,-1.60818 -1.1108,-1.26512 c -3.97855,-4.53132 -4.66885,-8.552208 -3.15364,-18.369547 0.76342,-4.946305 0.76409,-4.994322 0.087,-6.173611 -0.79713,-1.388278 -3.28385,-2.776033 -4.97438,-2.776033 h -1.15997 v -2.469445 c 0,-2.811057 -0.0583,-2.773846 3.24583,-2.072788 3.9645,0.841179 6.80448,2.853272 8.27787,5.864775 0.84544,1.728026 0.97275,2.400136 0.94911,5.010889 -0.015,1.658349 -0.35758,4.682054 -0.76125,6.719346 -1.49867,7.563594 -1.3651,9.576204 0.7654,11.532814 0.98915,0.90842 1.64012,1.17274 3.37032,1.36849 l 2.14439,0.24261 v 2.42387 2.42388 l -1.6757,7.1e-4 c -2.1517,7e-4 -3.9323,0.90924 -4.83869,2.46889 -0.95194,1.63803 -0.89239,5.20675 0.17364,10.40695 0.90648,4.421902 1.05253,8.458452 0.3882,10.728752 -0.70059,2.39406 -3.81995,5.29609 -6.74745,6.27718 -1.26118,0.42266 -2.96775,0.87096 -3.79236,0.99623 l -1.49931,0.22775 z"
       style="fill:#0d47a1;fill-opacity:1;stroke-width:0.35277778" />
    <path
       inkscape:connector-curvature="0"
       id="path3838"
       d="m 131.74239,108.26592 c -1.02163,-1.2988 -0.87294,-3.53652 0.38087,-5.73185 0.92776,-1.62446 4.80862,-6.948549 7.61066,-10.440949 l 1.13094,-1.40958 -1.80213,-5.22523 c -2.02147,-5.86123 -2.0098,-5.97467 0.65581,-6.37225 l 1.46834,-0.219 1.64076,3.3506 c 0.90242,1.84283 1.76982,3.35061 1.92755,3.35061 0.15774,0 1.77489,-1.75542 3.59368,-3.90092 3.15918,-3.72667 3.35688,-3.89165 4.42591,-3.69334 0.64552,0.11974 1.21858,0.0465 1.35432,-0.17316 0.31818,-0.51481 1.23083,0.24704 1.23083,1.02746 0,0.32009 -0.45438,1.13409 -1.00972,1.80888 -2.26771,2.75549 -7.10417,9.27155 -7.10417,9.5713 0,0.17685 0.97502,2.45302 2.16671,5.05816 l 2.1667,4.736609 -0.65823,0.98459 c -0.36203,0.54152 -0.66236,1.12603 -0.6674,1.29891 -0.005,0.17288 -0.27769,0.48371 -0.60588,0.69073 -0.83174,0.52464 -1.44656,-0.11541 -3.9894,-4.153119 -1.16417,-1.84856 -2.23163,-3.36491 -2.37215,-3.36967 -0.31309,-0.0106 -3.7911,5.131969 -6.47955,9.580639 -2.37093,3.92324 -1.93885,3.4204 -3.26614,3.80106 -0.95533,0.27398 -1.19348,0.19843 -1.79831,-0.57048 z"
       style="fill:#0d47a1;fill-opacity:1;stroke-width:0.35277775" />
    <path
       inkscape:connector-curvature="0"
       id="path3840"
       d="m 131.98567,83.677091 c -2.15148,-3.8472 -6.0183,-9.42829 -7.57842,-10.93815 -0.79252,-0.76698 -1.44094,-1.57494 -1.44094,-1.79546 0,-0.6016 1.61695,-1.21975 3.19058,-1.21975 1.69822,0 3.49597,1.47777 5.0997,4.19203 0.58208,0.98515 1.15641,1.79434 1.27629,1.79819 0.11988,0.004 0.80873,-1.65116 1.53078,-3.67779 1.5464,-4.34039 5.62351,-12.777999 7.22453,-14.951229 1.3726,-1.86316 3.42936,-2.865165 5.90274,-2.875676 3.23375,-0.01374 3.24268,0.130067 0.20474,3.296663 -4.63599,4.832327 -6.76321,8.809632 -11.25155,21.037252 -1.24637,3.39549 -2.39032,6.47895 -2.54212,6.85214 -0.23022,0.56597 -0.49833,0.28096 -1.61633,-1.71822 z"
       style="fill:#0d47a1;fill-opacity:1;stroke-width:0.35277775" />
  </g>
  <g
     aria-label="REACT"
     transform="matrix(0.44664543,0,0,0.44664543,-0.38009905,1)"
     style="font-style:normal;font-weight:normal;font-size:30px;line-height:1.25;font-family:sans-serif;letter-spacing:0px;word-spacing:0px;fill:#000000;fill-opacity:1;stroke:none;stroke-width:0.75"
     id="text5475">
    <path
       inkscape:connector-curvature="0"
       d="m 99.826272,19.447367 q 0.997248,0.126245 2.082898,0.981914 1.10001,0.852753 2.3575,2.480685 l 4.13272,5.25904 -3.11507,0.632869 -3.85884,-4.94099 q -1.499751,-1.937459 -2.647519,-2.436711 -1.133413,-0.502169 -2.856034,-0.152195 l -3.158139,0.641618 1.840279,9.058116 -2.899745,0.589122 -4.354257,-21.432276 6.54596,-1.3299005 q 3.674924,-0.7466107 5.795736,0.4219205 2.120809,1.168531 2.750769,4.269249 0.41122,2.02408 -0.265,3.551597 -0.66185,1.5246 -2.351258,2.405942 z m -9.092332,-7.524972 1.545718,7.608243 3.646214,-0.740778 q 2.095856,-0.425801 2.962737,-1.603415 0.87832,-1.194885 0.496265,-3.075413 -0.382055,-1.880528 -1.651179,-2.609236 -1.257685,-0.74598 -3.35354,-0.320178 z"
       style="letter-spacing:11.25px"
       id="path278" />
    <path
       inkscape:connector-curvature="0"
       d="m 122.27634,5.2615629 13.8075,-0.7548632 0.13594,2.4865212 -10.85293,0.5933353 0.35344,6.4649548 10.39951,-0.568546 0.13594,2.486521 -10.39951,0.568547 0.43261,7.912988 11.11621,-0.607729 0.13594,2.486521 -14.07079,0.769257 z"
       style="letter-spacing:11.25px"
       id="path280" />
    <path
       inkscape:connector-curvature="0"
       d="m 161.20055,7.1383304 -4.13007,10.8401536 8.04153,0.08618 z m -1.63859,-2.9327666 3.3543,0.035947 8.10012,21.9581792 -3.07599,-0.03297 -1.93195,-5.631377 -9.85784,-0.105643 -2.05219,5.588681 -3.11994,-0.03344 z"
       style="letter-spacing:11.25px"
       id="path282" />
    <path
       inkscape:connector-curvature="0"
       d="m 203.2824,8.6069232 -0.31852,3.1038168 q -1.34428,-1.536862 -2.96433,-2.3952084 -1.60549,-0.8568507 -3.49984,-1.0512526 -3.73041,-0.3828222 -5.94696,1.701593 -2.21506,2.069843 -2.6577,6.383128 -0.44115,4.298713 1.30586,6.789877 1.74849,2.476592 5.4789,2.859414 1.89435,0.194402 3.6404,-0.318507 1.76063,-0.511413 3.38903,-1.743214 l -0.31553,3.074673 q -1.65229,0.890665 -3.44019,1.237301 -1.77332,0.348132 -3.69681,0.150739 -4.93987,-0.50694 -7.47185,-3.814928 -2.53048,-3.32256 -1.99363,-8.553875 0.53834,-5.245887 3.68941,-7.9706689 3.15257,-2.739354 8.09245,-2.2324136 1.95263,0.2003835 3.61828,0.9014293 1.68172,0.6879693 3.09103,1.8780964 z"
       style="letter-spacing:11.25px"
       id="path284" />
    <path
       inkscape:connector-curvature="0"
       d="m 217.97751,9.1075811 18.18148,3.4233989 -0.46079,2.447231 -7.6296,-1.436581 -3.58603,19.045216 -2.92228,-0.550237 3.58603,-19.045216 -7.6296,-1.436581 z"
       style="letter-spacing:11.25px"
       id="path286" />
  </g>
  <g
     id="g2082"
     style="opacity:0.75"
     transform="translate(233.11778)">
    <g
       id="g5316"
       transform="matrix(0.07867002,0,0,0.07867002,-205.30617,20.115914)">
      <path
         style="color:#000000;display:inline;overflow:visible;visibility:visible;fill:url(#linearGradient2088);fill-opacity:1;fill-rule:evenodd;stroke:none;stroke-width:0.5;marker:none"
         id="path5312"
         d="m 79.8646,119.09957 c 35.39768,48.25534 70.03957,-13.46852 69.98868,-50.58675 C 149.79308,24.62677 105.31237,0.09913 79.8356,0.09913 38.94318,0.09913 0,33.89521 0,80.13502 c 0,51.396 44.64038,79.86497 79.8356,79.86497 -7.96447,-1.14675 -34.5062,-6.83395 -34.86292,-67.96677 -0.23987,-41.3466 13.48757,-57.86551 34.80527,-50.59905 0.47743,0.17707 23.51392,9.26451 23.51392,38.95053 0,29.55992 -23.42727,38.71487 -23.42727,38.71487 z"
         inkscape:connector-curvature="0" />
      <path
         style="color:#000000;display:inline;overflow:visible;visibility:visible;fill:url(#linearGradient2090);fill-opacity:1;fill-rule:evenodd;stroke:none;stroke-width:0.5;marker:none"
         id="path5314"
         d="M 79.82327,41.40081 C 56.43322,33.33893 27.78025,52.61662 27.78025,91.22962 c 0,63.04798 46.72055,68.77037 52.38416,68.77037 C 121.05683,159.99999 160,126.20391 160,79.9641 160,28.5681 115.35962,0.09913 80.16441,0.09913 c 9.74811,-1.35 52.54087,10.54991 52.54087,69.0368 0,38.14117 -31.95286,58.90496 -52.73547,50.03344 -0.47743,-0.17707 -23.51392,-9.26451 -23.51392,-38.95053 0,-29.55992 23.36738,-38.81803 23.36738,-38.81803 z"
         inkscape:connector-curvature="0" />
    </g>
    <use
       height="100%"
       width="100%"
       transform="rotate(90,-191.9229,31.907047)"
       id="use1927"
       xlink:href="#g5316"
       y="0"
       x="0" />
    <use
       height="100%"
       width="100%"
       transform="translate(25.174405,-3.1957586)"
       id="use1933"
       xlink:href="#g5316"
       y="0"
       x="0" />
    <use
       height="100%"
       width="100%"
       transform="rotate(90,-177.78388,42.94244)"
       id="use1937"
       xlink:href="#g5316"
       y="0"
       x="0" />
    <use
       height="100%"
       width="100%"
       transform="translate(50.348811,-3.1957576)"
       id="use1941"
       xlink:href="#g5316"
       y="0"
       x="0" />
    <use
       height="100%"
       width="100%"
       transform="rotate(90,-166.69668,57.029642)"
       id="use1945"
       xlink:href="#g5316"
       y="0"
       x="0" />
    <use
       height="100%"
       width="100%"
       transform="translate(75.523216,-0.19575658)"
       id="use1949"
       xlink:href="#g5316"
       y="0"
       x="0" />
    <use
       height="100%"
       width="100%"
       transform="rotate(90,-205.30621,32.703151)"
       id="use1889"
       xlink:href="#g5316"
       y="0"
       x="0" />
    <use
       height="100%"
       width="100%"
       transform="translate(12.587197,10.995137)"
       id="use1931"
       xlink:href="#g5316"
       y="0"
       x="0" />
    <use
       height="100%"
       width="100%"
       transform="rotate(90,-191.12113,43.692473)"
       id="use1935"
       xlink:href="#g5316"
       y="0"
       x="0" />
    <use
       height="100%"
       width="100%"
       transform="translate(37.761603,7.891517)"
       id="use1939"
       xlink:href="#g5316"
       y="0"
       x="0" />
    <use
       height="100%"
       width="100%"
       transform="rotate(90,-178.53393,56.279675)"
       id="use1943"
       xlink:href="#g5316"
       y="0"
       x="0" />
    <use
       height="100%"
       width="100%"
       transform="translate(62.936008,10.891519)"
       id="use1947"
       xlink:href="#g5316"
       y="0"
       x="0" />
    <use
       height="100%"
       width="100%"
       transform="rotate(90,-167.44673,70.366877)"
       id="use1951"
       xlink:href="#g5316"
       y="0"
       x="0" />
    <use
       height="100%"
       width="100%"
       transform="translate(0,25.174555)"
       id="use1957"
       xlink:href="#g5316"
       y="0"
       x="0" />
    <use
       height="100%"
       width="100%"
       transform="rotate(90,-204.51018,44.494322)"
       id="use1959"
       xlink:href="#g5316"
       y="0"
       x="0" />
    <use
       height="100%"
       width="100%"
       transform="translate(25.174406,21.978797)"
       id="use1961"
       xlink:href="#g5316"
       y="0"
       x="0" />
    <use
       height="100%"
       width="100%"
       transform="rotate(90,-190.37116,55.529718)"
       id="use1963"
       xlink:href="#g5316"
       y="0"
       x="0" />
    <use
       height="100%"
       width="100%"
       transform="translate(50.348811,21.978798)"
       id="use1965"
       xlink:href="#g5316"
       y="0"
       x="0" />
    <use
       height="100%"
       width="100%"
       transform="rotate(90,-179.28396,69.61692)"
       id="use1967"
       xlink:href="#g5316"
       y="0"
       x="0" />
    <use
       height="100%"
       width="100%"
       transform="translate(75.523217,24.978799)"
       id="use1969"
       xlink:href="#g5316"
       y="0"
       x="0" />
  </g>
</svg>
